<mxfile host="app.diagrams.net" modified="2022-03-19T03:07:17.461Z" agent="5.0 (Windows NT 10.0; Win64; x64) AppleWebKit/537.36 (KHTML, like Gecko) Chrome/99.0.4844.74 Safari/537.36" etag="efuHBqLL71K4F2A8Bs9Y" version="17.1.3" type="github">
  <diagram id="aSEMviaRTx0ImMuJfSny" name="Page-1">
    <mxGraphModel dx="3694" dy="2624" grid="1" gridSize="10" guides="1" tooltips="1" connect="1" arrows="1" fold="1" page="1" pageScale="1" pageWidth="850" pageHeight="1100" math="0" shadow="0">
      <root>
        <mxCell id="0" />
        <object label="boxx" id="1">
          <mxCell parent="0" />
        </object>
        <mxCell id="2HecWcqcv2C-dQ7gcDPI-7" value="&lt;span style=&quot;font-size: 20px&quot;&gt;&lt;b&gt;Cloudinary&lt;br&gt;&lt;/b&gt;&lt;br&gt;&lt;/span&gt;" style="ellipse;whiteSpace=wrap;html=1;fontSize=19;fontColor=default;fillColor=default;strokeColor=default;labelBorderColor=none;sketch=1;shadow=1;" vertex="1" parent="1">
          <mxGeometry x="490" y="-10" width="130" height="110" as="geometry" />
        </mxCell>
        <mxCell id="2HecWcqcv2C-dQ7gcDPI-9" value="" style="shape=image;verticalLabelPosition=bottom;labelBackgroundColor=default;verticalAlign=top;aspect=fixed;imageAspect=0;image=data:image/png,iVBORw0KGgoAAAANSUhEUgAAAHcAAABOCAMAAAAtknndAAAAhFBMVEX///80SMUwRcQtQ8Rlcc8qQMMgOsJtedJve9IXNMEeOMLl5/a1uuYlPcMKLcAaNsEAKb9+iNYSMcHV2PFpddD29/zv8Pqaod6DjNfCxurh4/Vea867wOioruKfpt+QmNtDVMh2gdRXZcxRYMtLW8rJze2Jktk8T8evtOQAIL4AGL0AALv4RgZ/AAAFkElEQVRogbVaa4OyLBBNCEvMe1rZltpFe/b9///v1bgIhCXmzqeWVQ4zHGbOUIuFuWX3x26/3i631b44HfJ0whTGlj+qMnY8BCEAAELk4Rgd6/vfYmfnm2dDYCkGUGBV9z9DTY6h94LJoKGDz9lfoN4vMRwApebhYnbk/BgMuSoiw/O8sHWo+NpRqrWWXPK4DZL5UJPSFudG2IeX7gzVUXVsWnKL2MAp5oJ94H5igGIv2rj9sUmz+64MbQHavs6zy/u4R8VWrYtjtrlixJ+CeI4ztcJ8QlxuBvNDUgl0j3++hj16fFvjx9sn863Po+28f/SzXRgsCKqPuVDgn3/6CrZisBAexjxfO7OEehewhHAbydEDj3Uw/SAfQkaoavQ7rkXpBcDU45QxJge1yVslBUbHibhbeiRxZPRaZtFQB9O49aAc8daGL2asQvvuBNiUegtuxq8mdIPgcgLsnh6heMKiT/QcOGYJM71HKKTuBhtz2MViSbgFGoN38ho4PMlPCdWiPwrjV51sMc/IXaTySbgs0qAcuc5KFhbI7AgJdiOcDkal1x+ELMmmkIpORSINtyOe3TsiZivLDTOGZDR7oI/ZMr0KKgratnVb118olgeZzT59KJ9p2cfYxqvTt21PSuWRDd+2MWnJCeXNo/wrNmHXxkRDVfGKeIR3M4C29hNYvSH/okVesUNrHydTWDFXzAOt1/HqNYqs9lixSan9YFell0BIPcw5q/DOd3JMtlp2uDVf8Yqm8amVesAOqFWhvtTGBJJgOlDKY31rU01t8tLWsvv5IrTNtpi/WGrRC6IK+192l9m54SnJXvHhAyUV1J7aCM+w7emZd24BP6ZHsrtY21tEeB6+uQ1jGRPWlMx6HbWmTA+/b+QrGmtgkax5JgvBOmkQ8X2Jv6d6RH2gCfFIK/SbJerPWG4qvY40F/udwylhFdKcoXXf+nZPK6HO/dCw20wbenC69HEnuPFr2q6kW432EQk4R8DyDYHvQb/DJ7K98KVEqrBtqAXg/NkUBIbAa8i5VD8/gpecsfQVrWUB7x8/e3kMptDNJR1mp7qWzwlehGO+LwqlnpRFEdGodEGmu24GTCsBThe35wdPV+xlh2Hfn+XC3agmpbzpuKkYcJJF8/xg6zZKweWZlQWZeqymlPp3+I4hJUfEOy8svtNjcfsgW7o9roN3lxskW8A9xbXH46qwSqjrLpLOIHD1nBQs2f7q8q8WN/dfroOBkL2p9o+HchnNyiXj834kbnq9XRVYeLk0jEo1E5FDoaZy3lrsn8vX9ptDvFrJHtv9G3WfWQdCvWG4xHFWnEbhrodwI7HB0of6xHAPZIma/GyMWwfSuBa4ILy6LjIi6nSJwxC3lsrXQKi3ZFvXXF6jb3Ej2Vu9xynRkKj1siDM1ty9GOFGv76q0x3/PxU4IdHFbSQSWhQv3+G6bnaWgZ175qoSNSJzxt04DXTwshumvNrIFVtzXZeFgo8PKigb9SjNj0uypGWT/EZ56Kk1eHZcqnMsj/znQf9Uv0CYG5d1xFxk3NjNrczpmXGZnLR8xraE5TdbAp4X123oa3YvmQv2hiSJZ8X9cai3sBRGb2wqJ+pZPSNuvuLfutnilWfGRYTXL2c23Kzy+FyhnCYS3pPD+XGTkA86qrBJ2BfL4A9weZA1qjdHcBouHo0LQt21cHrBMq4lCce2VlOL5AWFbPxHLsAOlxKsCl0H7uSKTpD3uIpfDmP6Sa47PNvk0j2y0No+cREevjNImgD0uAdfmodLkuyfvAG8p2tkZe2xhSYx8MLo7WXro3H6P+TGu3fsHEvjmC0okRqYfkHJb/PxJxapmLEiv/vJAjPo9MCeMA54R36HWBzH9JbMPZheZifFainYlb3v7ippnFEofUTi+GWwS/0fuipT5SPhYBEAAAAASUVORK5CYII=;" vertex="1" parent="1">
          <mxGeometry x="530" y="55" width="45.77" height="30" as="geometry" />
        </mxCell>
        <mxCell id="2HecWcqcv2C-dQ7gcDPI-10" value="&lt;b&gt;Laravel Passport&lt;/b&gt;" style="ellipse;fontSize=19;verticalAlign=middle;align=center;html=1;whiteSpace=wrap;sketch=1;shadow=1;" vertex="1" parent="1">
          <mxGeometry x="630" y="160" width="110" height="110" as="geometry" />
        </mxCell>
        <mxCell id="2HecWcqcv2C-dQ7gcDPI-13" value="&lt;b style=&quot;font-size: 16px&quot;&gt;LARAVEL&lt;br&gt;&lt;br&gt;&lt;br&gt;&lt;/b&gt;" style="ellipse;whiteSpace=wrap;html=1;aspect=fixed;labelBorderColor=none;fontSize=15;fontColor=default;strokeColor=default;fillColor=default;sketch=1;shadow=1;" vertex="1" parent="1">
          <mxGeometry x="70" y="170" width="120" height="120" as="geometry" />
        </mxCell>
        <mxCell id="2HecWcqcv2C-dQ7gcDPI-14" value="" style="shape=image;verticalLabelPosition=bottom;labelBackgroundColor=default;verticalAlign=top;aspect=fixed;imageAspect=0;image=https://laravel.com/img/logomark.min.svg;" vertex="1" parent="1">
          <mxGeometry x="110.00000000000001" y="240" width="38.46" height="40" as="geometry" />
        </mxCell>
        <mxCell id="2HecWcqcv2C-dQ7gcDPI-19" value="" style="ellipse;whiteSpace=wrap;html=1;labelBorderColor=none;fontSize=15;fontColor=default;strokeColor=default;fillColor=default;sketch=1;shadow=1;" vertex="1" parent="1">
          <mxGeometry x="250" y="-20" width="110" height="100" as="geometry" />
        </mxCell>
        <mxCell id="2HecWcqcv2C-dQ7gcDPI-20" value="" style="shape=image;verticalLabelPosition=bottom;labelBackgroundColor=default;verticalAlign=top;aspect=fixed;imageAspect=0;image=data:image/png,iVBORw0KGgoAAAANSUhEUgAAASwAAACoCAMAAABt9SM9AAAAsVBMVEX///9TgqH/pRj/nwD/oQD/ogBQgKD/owtLfZ7+uF///ftBeJpPgJ9KfZ1Gepw+dpn+tll8nbSlusn3+fr+7t7O2eFnj6rY4edciKWDoriXsMLo7fG9zNezxdJ1mLCiuMiNqb3v8/X+0aH+58/+8eXH1N3+4cP+wHf+2bH+yIr+r0X+rDv/mgC7y9b+3bv+zJX+u2n+qTD+9/D+w37+sk3+yo/+6tUubpT+0Z3/qCb+27SPs7ZXAAAP/UlEQVR4nO1dCVviOhSlFNJq21QomyhlERAF92Wc+f8/7CVtbpYuEPRZ0Pa873sz0qjtmbuc3JuktVqF34vL0HUHrdHFoe/jJ6DluAZyke30Lg99K0ePNjaQ7bmGYSDs3R36bo4cvuH1RqPQ8QhdBja6h76fY0YXox79c9pGmJiX658f+o6OGJfYG7O/LgaYGJc9CA56Q8eMLnZD/sXCtYlxee3R5aLbP+BNHSsC3/Al0TB0SKC3bRtjxwnbFWEJnCPUkr4c+a6LjAiu5+Bhpb5kXPiGIyuGfq/n+b6DcSQnPKc1PditHSHG2HAS9hNML/qLseFQE0P+OPv7yokecr3MDNg/j9SXbVSxiyMgGj7MvjQdUrpcZ1LoDR01+r6BRznXgolPYpftVcYFaKfDlsBFj2pVf1jkDR01QoQG+VcvaaS3e1VaZPBkR7wcD9WAH4TEuFxcuWKMrmNgTtCd7+GEV458KiLyAlvZ0EK2oGKMU17Zt4krOlXgitDHrsRP6DpJnwt6ZJKNqwJOBM+Q+Ok7fjo7tkjgsnMEWclA/FCa14RZyXFC2PIqtmq0Cmgg8VU/UyeMHWJbrawrZYO/RZgChsS28KSAmzl2nCOvvXNQxFZVhqAF5i0qHnBOJtbO4vvv5tjhoYwUmEKP6C2dcb8cQ8/e7Ye1wHAN1/3+uzlyXPhyPtw2zPAqcdpDWCca3REB4ZR+XcRCK8SzIF/6gs3AxVoWg9zcQnR50HVQdusiNY6ordKvuAldvdkMdURc9jURJNPZOokuIKblTb77bo4dI9/AOhW+Ea6kaa3Wtg1fJ9ERaYoqsTXQs5gFNa3SRy3HwFoDB66hUaX43Rjbmt41soknfvPNHDs0pzzRKjgDl3y5rmP4miPPkeGWW8b3safbG+z7ZVcPY1u/Sd9DJRemA6SXCymoenBKrB4CZ58wVHL10BdbCDRAW43e993MseMS2/tUXmjtobwra9reXtKp3MJ06O23Ys1Ghl5t9Tdi4u1u4ctoeyU2rQmSyBrvnvfQImBpTWsiadKuP9n9DcMSm9ZQBPipr1Nlpx3XsrYu2jZ3qp5r2BqyoEWm01rNxt+HO9tjBPVJNNJhgY7TLOr8NnQxmsR/O6c7whwN0RW6xrYNB78YUwesyY62Z2pMFCPTKqeMR6wLcUG3/+rVq0jUKmnJdILiCL/Ahtu7xEijP021loHddvmKNQu2Gb9t07YgMlJ7B7K+x6cea5dwP7UT91gniAqHEdYqb126mG5W8ZxWybZCTbyoCB+iKA4hrYRIsiiZJ3kkyjlhqayLbsafRkVQOkscaS5vI+gPMUaErlKt+5549HAaaM57+8iCRcsnBjkokXEFJLQbY5vJ976/V09ieu4byC9RXZ7w45L4Y8f9w7az38rkLiLGGJZHRizofnsEK2wn2N9PcU58hEq0Wf8idJwejzwtvGcHZ0ECfZl2CAeyH7X2PQOD7j8v7bkZkz/71mBGDrJ75QlcCsZ/9t0iELSIL5aUrcX+dfY2tnvfcCc/ARd76YfpxUX/IkRa655/I6Z6Dx4sxqGBfcehcx/DL2kro3axe9IXLEIH2/RANwMhZGO/vGfqBuMdAfvcx9FpgchzMOqdjxclDfAxtj98EFGFsB+O+qWmSQttWtGalGei8yUEmq3GChQL2hIqq3DfG/SIDIQqR9TDOT3BzZ9UxqWFsU/bPCXtUO+N6AS3chXiv4AgpGdPumWq/n0Fl150PuDk0PfxQ9D2sGvg6lQyTYwMrHnqQYUarRfa1Rlu+mj7PzTKz5ezt5uXm4fV1fPOofcfN4+Pj9c3H8v5137pxWDvTkc2PASwt1TVMB+luxk3C52bumk2mhQN06y/LPOHLh8bdKhlWdHY5nXm2JOGFcE83fGbh3/+j/Jf4HAaUH4zoCvI2m+biIzOq9msy2iajYds+5o1TKueGFtfpcedsFE7yap1//wP6pSu2QTkr66b2HzQp4/Mvkk+P0XDfEuPXNYb6ZGEkadOcqQ+WXt2OrLRxYKsfD8UXH16h8ytmUUAoauRHPmSM7JumUnj2oOs2v9wKNlI4iG3YCYz6n0usaxlDyRRRvjXdWLka6ZZMVIe1LH7kPU/YCyRlbuAWvJCQ/sEAQUnnCurYTae1uv6hkRt+qhmItPdyiPNDfmvIbmvOVN/bLFkTZBEVt6Jl5JhGTqLrFNYcc8y1/9YTJ8vb9Yk352pIx/BrizzdtYhHJzO7x+lxLB5l0cXTFYok5Xjh7IXfq64LbhSo858Vr9SPpjByOaTdOH5UQpj8vCCyXJlsnL8cOLJY+z9f8kKzMXcoqwo5kBK40S98I+z1ZDTZ8Fk+YZCRKYfOsqYT6jSW/ZMjYcdA8/YwKRz1mr3wjglaVYsWVNGBLzvLcvHmBe6jKz9Vekzt5cdA684I+lrLxC3mhLjxZLFNClqoXwmYi/0ztmQ/VUpcGAlVUISr/DsWd7Kc6IpPiuWLGY1GGJ41iklUTHb7V0y/bD/Dsh/LGQ1Z9vHdYDUddbVWUbgK5YsxoAT9FCeH8Y8eiPgU2cPrgp4zMYOsm6Yp5n3WVdPeaIUBlosWe040Tm1kZeXD2MvdC76QBabFAXjdoRx2hgXcCn+EshKifUEwNHM7MuP3BH5R8WSNYw5wtHu9Ww/jL3Q4CNgP25tgO0I6RMyQ3aFlTG4crC23ss7eOFj9nWeEIXoL5YsiNrRjqJMP4wNiphTwBIn38zGrNJIH7HDfpY9ib9c8myYUWUR+GhuH8WTqnDTYsmKQ5XbE5PEpB/GtkerN3ZCXoCppbcCJqLbPFMjpcBzYaoSw/AEKuwGPimWrFg90WPC+062HzKRVeP2Ik6qAumVlKnAIhcZwFXdqm9hi2e7vAEQtCwu74slK6YiOhGUPTpS10GzXMj2ScYcwHKLdo6YgLzJD6a9EZWEep7ZcPuznvJGgJ+KEYWSxeJQdLwgi/UJXRp/GtkIxDd+tj9UWXnIZ2A1MhH+njfctupmnn6AyGad5AyQIjx8UihZ7HEjwwE/VHWUFzEUTZ45m1zCgx8m5tZsoHTC44NUNTCf1EIDAHKmiEhJQLqsb4CbQsliBMXz55gX1Q/jXBg/Nvc6vpNtnPokAhO4cpa8lQqllnmW5YsPbEgzd7Y9T2mHQsli0SU2JqjEyLqJeWFEBlSgRRWeJwW1euqn/fn0r1JWNq/Tgf4alEOuzhfaAcgulKwFIyt6/Kz5TKRI2fHZi/R1qEQo7wqCUKYcNHp6q5TWm8lqush1+WKMT3hMKJcWShYzFpbOQKILP4y9kB2f3U3Md2o5SYGRmpRfL2orrNH8p15/3UkWL7iaEPUKJYuFIRZzIN0JP2ReGHPJM8CEfz+fL8rijEWy1MSpk+iGmWsl0vMKYYJECY2DkgVTwzi/pf0s/oBte+eFQqllYWcUK0JX/qEy7tXuqWWeSK2d9bGTxWyJeRHM/rgfKl6YvlzLTgrgmlm/8EPt4FuS6lrvdkNO1kFiFjMCCDmthOxkXgjZjzd5xA/ISApQfM0+POb5Wg1dJi8x7EPWQbIhU0RwvMRl4tFRdJnPWhDjUt4Ez75DoobVE3Pfutc5U+hqQG+Cx6xc6XB6WJ3F5sZAR8LR4ogushobrTgYNGnFC0omShzMwtWTHOkbzLYgGzYzlorEOD2sgme2wssGIdAR+WHshUKI91LZUvihUKrwD7Dt964aUugy44gOOqv5kvddXME34ZNCyWKW9Ae+vrNlP3SVACZRKasq8ENY0TON1dqOLv/piWRc8bODgs+fSKcbGkWSFcDEBD6Ygi6lrhd7oZT7Mpth/EP2NUwKdu1K/hBsxT39h1QBJollqu5cJFmQuMRspSeFIOaFIs+BTlDmzSDO4EM2aPc7GvmyhroVxXheqc9txfLGB58qHYAsSVLCZJkaRlyFkJ4aJjfqejbodEziL3Nbailc87gV1aeW6X5EzjeIxmGRZLHZiuRpUl095YW8RqNWvJg4Y9Vm9gO2LeYFnIrSPKVHFGDyVo+AEjtMd4elMlk/cnkQxHYkL/QDs1NnfSDO4pogG6Nz+KNYvhBPX8AN86p/vELzl39UJFks3siZi1vP5SCV+XiuVMwGskSsQiFj6vz6pVpFAKGVF+FhuKQtiiSLiW35DWZi9bKbij1gQ4laXyh1OgIna0QO3lWyPrihZQctEGKmKFYUSRbzGaXhwJcWSebCAIkv0aAAg6OTJjZEywvFCqN4rse5y9bwp6l2RcFkpToLIuXFUFquoNYTghNKN1Q8xKpL88x/sSAwflaI99mdQ16jl0JakWRBmU52mr68zk996n561hwBGhRj0PM6r66viXV+oMh5ezFrhaAowB9o5R/0rJSALa+2Va9wshLnUUGfMATb03snnHA7ZitzVUuo4Cso5aU4RZLF1Laa3WQ/VGOPCP7qj4FJksu8MF3Kymza/+VLjJLlqYw2/02WYRVKFpvXqV4jL+RWujaCrOQL4pgfYpYLU2sD55vHVKfwec2ZeYXPOmIGVFdtS3ClVLuKJIuJ70RrQWynSCgAsKBU+YUtPrJjf0Spxd+PlmWuZ4qxrMS+iY0g8kUsijDfxPirNV/h9Sr/EEHWfs/9KTCFlFj4KDZdJAp4QR5ZMMfsuWmvrrFYZDXM9c195/n09Llz/9IUnQulg1iXNvWYJ7OrTqezfHvipVXLUk2I+23dUhFNme43jbq5ITP2F3oPX7U+SGMqWQvuh8meQx5ZNfDa+Gqy4MCXCjVNBqn0p24PmMs1VLp5x2RbfNgHicAvyEogIut5Ptt0OrUZ3bv58XWyMi2L58PUuzs5WckzXuQ9GOk3Gq/z9sTRp0qU+t6zdiUCnpJhfztZ1LbI/z7OXle1+stXyYLljIlCHTR5Um/PgACfKlYtpKSQoRtWjbxtcWaqhtypN3PG1q2z98Tg3WQRhj5e7/92zKvNF8mC0JTYb8nrecnxOI8saT9sdj35QdkIxx+pnrX66DrXuCzzVv0GPbJuayRcvn+VLJtte06QFfjxBvOUP8FO6bTxiAyat1tltVb5IgHsb07Tq/OYpFZELZWus6aVDYWsde1x0/myZYWtCGHS3SbZH9daDOkXRPRg+r3l0Pb5xxkJ1w0K8if5t86/sefVSTSUbtMngy1pxyERIaI4+HKWg9eY0uWaMLS6rl2d1d7Xxewc0wAnK70oXsH86t9sNlstc1eWSkOXq4+3t7eP6ASIU8k3LfNpx068IwdEM80p9Ccgr8GxNhpkHy1giv2t72O8t3YVnn8GoJjsf++ZhG/MFxtHE34+gTvQGt/9rpvnE0pX6niHn4Ruen3lt+GKTBQztyP+EIygnOUVctLlarNFcxw3pncDqJ9+/kif/fATA5aPjYGBHZsrrOrA2XxgJHfN0KdPPyoF5MaG4RnV4anbIJGFdN4hXmp4jhd3+D2/XG9e/BT6w4Hv+07YrqjSQ1AdIl6hQoUKFY4a/wEICgLF4+0r1AAAAABJRU5ErkJggg==;" vertex="1" parent="1">
          <mxGeometry x="260.71000000000004" y="5" width="89.29" height="50" as="geometry" />
        </mxCell>
        <mxCell id="2HecWcqcv2C-dQ7gcDPI-23" value="&lt;span style=&quot;color: rgba(0 , 0 , 0 , 0) ; font-family: monospace ; font-size: 0px&quot;&gt;%3CmxGraphModel%3E%3Croot%3E%3CmxCell%20id%3D%220%22%2F%3E%3CmxCell%20id%3D%221%22%20parent%3D%220%22%2F%3E%3CmxCell%20id%3D%222%22%20value%3D%22ADMIN%20SIDE%22%20style%3D%22shape%3Dcube%3BwhiteSpace%3Dwrap%3Bhtml%3D1%3BboundedLbl%3D1%3BbackgroundOutline%3D1%3BdarkOpacity%3D0.05%3BdarkOpacity2%3D0.1%3BfontSize%3D19%3B%22%20vertex%3D%221%22%20parent%3D%221%22%3E%3CmxGeometry%20x%3D%22360%22%20y%3D%22370%22%20width%3D%22120%22%20height%3D%2280%22%20as%3D%22geometry%22%2F%3E%3C%2FmxCell%3E%3C%2Froot%3E%3C%2FmxGraphModel%3E&lt;/span&gt;" style="ellipse;whiteSpace=wrap;aspect=fixed;labelBorderColor=none;fontSize=15;fontColor=default;strokeColor=default;fillColor=default;sketch=1;shadow=1;html=1;dashOffset=1;curveFitting=0.95;hachureAngle=-40;hachureGap=-1;jiggle=1;labelPadding=0;" vertex="1" parent="1">
          <mxGeometry x="310" y="110" width="230" height="230" as="geometry" />
        </mxCell>
        <object label="boxserbe&#xa;" id="2HecWcqcv2C-dQ7gcDPI-31">
          <mxCell parent="0" />
        </object>
        <mxCell id="2HecWcqcv2C-dQ7gcDPI-38" style="edgeStyle=orthogonalEdgeStyle;rounded=0;sketch=1;orthogonalLoop=1;jettySize=auto;html=1;exitX=1;exitY=1;exitDx=0;exitDy=0;exitPerimeter=0;shadow=1;fontSize=19;fontColor=default;" edge="1" parent="2HecWcqcv2C-dQ7gcDPI-31" source="2HecWcqcv2C-dQ7gcDPI-5" target="2HecWcqcv2C-dQ7gcDPI-37">
          <mxGeometry relative="1" as="geometry" />
        </mxCell>
        <mxCell id="2HecWcqcv2C-dQ7gcDPI-5" value="RESTful API" style="shape=cube;whiteSpace=wrap;html=1;boundedLbl=1;backgroundOutline=1;darkOpacity=0.05;darkOpacity2=0.1;fontSize=19;shadow=1;sketch=1;" vertex="1" parent="2HecWcqcv2C-dQ7gcDPI-31">
          <mxGeometry x="360" y="220" width="120" height="80" as="geometry" />
        </mxCell>
        <mxCell id="2HecWcqcv2C-dQ7gcDPI-6" value="ADMIN SIDE" style="shape=cube;whiteSpace=wrap;html=1;boundedLbl=1;backgroundOutline=1;darkOpacity=0.05;darkOpacity2=0.1;fontSize=19;shadow=1;sketch=1;labelBackgroundColor=default;" vertex="1" parent="2HecWcqcv2C-dQ7gcDPI-31">
          <mxGeometry x="360" y="150" width="120" height="80" as="geometry" />
        </mxCell>
        <mxCell id="2HecWcqcv2C-dQ7gcDPI-32" value="&lt;p style=&quot;line-height: 0; font-size: 16px;&quot;&gt;&lt;/p&gt;&lt;h1 style=&quot;border-width: 0px; border-style: solid; border-color: rgb(231, 232, 242); box-sizing: border-box; margin: 0px 0px 0.65em; line-height: 1.125em; color: rgb(35, 35, 35); font-size: 16px;&quot;&gt;&lt;span style=&quot;font-size: 16px;&quot;&gt;LARAVEL&lt;/span&gt;&lt;/h1&gt;&lt;div style=&quot;font-size: 16px;&quot;&gt;&lt;span style=&quot;font-size: 16px;&quot;&gt;MAIL&lt;/span&gt;&lt;/div&gt;&lt;p style=&quot;font-size: 16px;&quot;&gt;&lt;/p&gt;" style="ellipse;whiteSpace=wrap;html=1;shadow=1;labelBorderColor=none;sketch=1;hachureGap=-1;hachureAngle=-40;jiggle=1;curveFitting=0.95;fontSize=16;fontColor=default;strokeColor=default;fillColor=default;align=center;verticalAlign=middle;fontStyle=1" vertex="1" parent="2HecWcqcv2C-dQ7gcDPI-31">
          <mxGeometry x="80" y="10" width="120" height="80" as="geometry" />
        </mxCell>
        <mxCell id="2HecWcqcv2C-dQ7gcDPI-34" value="&lt;b&gt;&lt;font style=&quot;font-size: 19px&quot;&gt;MOBILE APP&lt;/font&gt;&lt;/b&gt;" style="ellipse;whiteSpace=wrap;html=1;aspect=fixed;shadow=1;labelBorderColor=none;sketch=1;hachureGap=-1;hachureAngle=-40;jiggle=1;curveFitting=0.95;fontSize=16;fontColor=default;strokeColor=default;fillColor=default;" vertex="1" parent="2HecWcqcv2C-dQ7gcDPI-31">
          <mxGeometry x="100" y="520" width="170" height="170" as="geometry" />
        </mxCell>
        <mxCell id="2HecWcqcv2C-dQ7gcDPI-37" value="&lt;span style=&quot;font-size: 19px&quot;&gt;&lt;b&gt;CLIEND&lt;br&gt;SIDE&lt;br&gt;&lt;/b&gt;&lt;/span&gt;" style="ellipse;whiteSpace=wrap;html=1;aspect=fixed;shadow=1;labelBorderColor=none;sketch=1;hachureGap=-1;hachureAngle=-40;jiggle=1;curveFitting=0.95;fontSize=16;fontColor=default;strokeColor=default;fillColor=default;" vertex="1" parent="2HecWcqcv2C-dQ7gcDPI-31">
          <mxGeometry x="600" y="470" width="170" height="170" as="geometry" />
        </mxCell>
        <mxCell id="2HecWcqcv2C-dQ7gcDPI-40" value="&lt;b&gt;&lt;font style=&quot;font-size: 16px&quot;&gt;REACTJS&lt;br&gt;&lt;br&gt;&lt;br&gt;&lt;/font&gt;&lt;/b&gt;" style="ellipse;whiteSpace=wrap;html=1;shadow=1;labelBorderColor=none;sketch=1;hachureGap=-1;hachureAngle=-40;jiggle=1;curveFitting=0.95;fontSize=19;fontColor=default;strokeColor=default;fillColor=default;" vertex="1" parent="2HecWcqcv2C-dQ7gcDPI-31">
          <mxGeometry x="550" y="720" width="170" height="170" as="geometry" />
        </mxCell>
        <mxCell id="2HecWcqcv2C-dQ7gcDPI-41" value="&lt;span style=&quot;font-size: 16px&quot;&gt;&lt;b&gt;ANTD&lt;/b&gt;&lt;/span&gt;" style="ellipse;whiteSpace=wrap;html=1;shadow=1;labelBorderColor=none;sketch=1;hachureGap=-1;hachureAngle=-40;jiggle=1;curveFitting=0.95;fontSize=19;fontColor=default;strokeColor=default;fillColor=default;" vertex="1" parent="2HecWcqcv2C-dQ7gcDPI-31">
          <mxGeometry x="750" y="710" width="110" height="100" as="geometry" />
        </mxCell>
        <mxCell id="2HecWcqcv2C-dQ7gcDPI-42" value="&lt;span style=&quot;font-size: 16px&quot;&gt;&lt;b&gt;QR CODE&lt;/b&gt;&lt;/span&gt;" style="ellipse;whiteSpace=wrap;html=1;shadow=1;labelBorderColor=none;sketch=1;hachureGap=-1;hachureAngle=-40;jiggle=1;curveFitting=0.95;fontSize=19;fontColor=default;strokeColor=default;fillColor=default;" vertex="1" parent="2HecWcqcv2C-dQ7gcDPI-31">
          <mxGeometry x="850" y="620" width="110" height="100" as="geometry" />
        </mxCell>
        <mxCell id="2HecWcqcv2C-dQ7gcDPI-43" value="&lt;span style=&quot;font-size: 16px&quot;&gt;&lt;b&gt;BARCODE&lt;/b&gt;&lt;/span&gt;" style="ellipse;whiteSpace=wrap;html=1;shadow=1;labelBorderColor=none;sketch=1;hachureGap=-1;hachureAngle=-40;jiggle=1;curveFitting=0.95;fontSize=19;fontColor=default;strokeColor=default;fillColor=default;" vertex="1" parent="2HecWcqcv2C-dQ7gcDPI-31">
          <mxGeometry x="850" y="460" width="110" height="100" as="geometry" />
        </mxCell>
        <mxCell id="2HecWcqcv2C-dQ7gcDPI-46" value="" style="shape=image;verticalLabelPosition=bottom;labelBackgroundColor=default;verticalAlign=top;aspect=fixed;imageAspect=0;image=https://www.datocms-assets.com/45470/1631110818-logo-react-js.png;" vertex="1" parent="2HecWcqcv2C-dQ7gcDPI-31">
          <mxGeometry x="593.1800000000001" y="810" width="83.63" height="55" as="geometry" />
        </mxCell>
        <mxCell id="2HecWcqcv2C-dQ7gcDPI-51" value="&lt;b&gt;REACT NATIVE&lt;br&gt;&lt;br&gt;&lt;br&gt;&lt;br&gt;&lt;/b&gt;" style="ellipse;whiteSpace=wrap;html=1;aspect=fixed;shadow=1;labelBorderColor=none;sketch=1;hachureGap=-1;hachureAngle=-40;jiggle=1;curveFitting=0.95;fontSize=16;fontColor=default;strokeColor=default;fillColor=default;" vertex="1" parent="2HecWcqcv2C-dQ7gcDPI-31">
          <mxGeometry x="-210" y="540" width="200" height="200" as="geometry" />
        </mxCell>
        <mxCell id="2HecWcqcv2C-dQ7gcDPI-52" value="" style="shape=image;verticalLabelPosition=bottom;labelBackgroundColor=default;verticalAlign=top;aspect=fixed;imageAspect=0;image=http://www.appcoda.com/wp-content/uploads/2015/04/react-native.png;" vertex="1" parent="2HecWcqcv2C-dQ7gcDPI-31">
          <mxGeometry x="-166.87" y="640" width="113.75" height="70" as="geometry" />
        </mxCell>
        <mxCell id="2HecWcqcv2C-dQ7gcDPI-53" value="Untitled Layer" parent="0" />
        <mxCell id="2HecWcqcv2C-dQ7gcDPI-68" style="edgeStyle=orthogonalEdgeStyle;rounded=0;sketch=1;orthogonalLoop=1;jettySize=auto;html=1;exitX=0.5;exitY=0;exitDx=0;exitDy=0;entryX=0;entryY=1;entryDx=0;entryDy=0;shadow=1;fontSize=16;fontColor=default;" edge="1" parent="2HecWcqcv2C-dQ7gcDPI-53" source="2HecWcqcv2C-dQ7gcDPI-55" target="2HecWcqcv2C-dQ7gcDPI-34">
          <mxGeometry relative="1" as="geometry" />
        </mxCell>
        <mxCell id="2HecWcqcv2C-dQ7gcDPI-55" value="QR SCANNER" style="ellipse;whiteSpace=wrap;html=1;shadow=1;labelBorderColor=none;sketch=1;hachureGap=-1;hachureAngle=-40;jiggle=1;curveFitting=0.95;fontSize=16;fontColor=default;strokeColor=default;fillColor=default;" vertex="1" parent="2HecWcqcv2C-dQ7gcDPI-53">
          <mxGeometry x="-50" y="740" width="160" height="140" as="geometry" />
        </mxCell>
        <mxCell id="2HecWcqcv2C-dQ7gcDPI-69" style="edgeStyle=orthogonalEdgeStyle;rounded=0;sketch=1;orthogonalLoop=1;jettySize=auto;html=1;exitX=0.5;exitY=0;exitDx=0;exitDy=0;entryX=0.615;entryY=1.056;entryDx=0;entryDy=0;entryPerimeter=0;shadow=1;fontSize=16;fontColor=default;" edge="1" parent="2HecWcqcv2C-dQ7gcDPI-53" source="2HecWcqcv2C-dQ7gcDPI-56" target="2HecWcqcv2C-dQ7gcDPI-34">
          <mxGeometry relative="1" as="geometry" />
        </mxCell>
        <mxCell id="2HecWcqcv2C-dQ7gcDPI-56" value="BARCODE SCANNER" style="ellipse;whiteSpace=wrap;html=1;shadow=1;labelBorderColor=none;sketch=1;hachureGap=-1;hachureAngle=-40;jiggle=1;curveFitting=0.95;fontSize=16;fontColor=default;strokeColor=default;fillColor=default;" vertex="1" parent="2HecWcqcv2C-dQ7gcDPI-53">
          <mxGeometry x="150" y="770" width="160" height="130" as="geometry" />
        </mxCell>
        <mxCell id="2HecWcqcv2C-dQ7gcDPI-77" style="edgeStyle=orthogonalEdgeStyle;rounded=0;sketch=1;orthogonalLoop=1;jettySize=auto;html=1;exitX=0.5;exitY=0;exitDx=0;exitDy=0;entryX=0.243;entryY=0.939;entryDx=0;entryDy=0;entryPerimeter=0;shadow=1;fontSize=16;fontColor=default;" edge="1" parent="2HecWcqcv2C-dQ7gcDPI-53" source="2HecWcqcv2C-dQ7gcDPI-57" target="2HecWcqcv2C-dQ7gcDPI-23">
          <mxGeometry relative="1" as="geometry" />
        </mxCell>
        <mxCell id="2HecWcqcv2C-dQ7gcDPI-57" value="VNPAYMENT" style="ellipse;whiteSpace=wrap;html=1;shadow=1;labelBorderColor=none;sketch=1;hachureGap=-1;hachureAngle=-40;jiggle=1;curveFitting=0.95;fontSize=16;fontColor=default;strokeColor=default;fillColor=default;" vertex="1" parent="2HecWcqcv2C-dQ7gcDPI-53">
          <mxGeometry x="320" y="380" width="120" height="120" as="geometry" />
        </mxCell>
        <mxCell id="2HecWcqcv2C-dQ7gcDPI-62" style="edgeStyle=orthogonalEdgeStyle;rounded=0;sketch=1;orthogonalLoop=1;jettySize=auto;html=1;exitX=0;exitY=0.5;exitDx=0;exitDy=0;entryX=0;entryY=0;entryDx=120;entryDy=50;entryPerimeter=0;shadow=1;fontSize=16;fontColor=default;" edge="1" parent="2HecWcqcv2C-dQ7gcDPI-53" source="2HecWcqcv2C-dQ7gcDPI-10" target="2HecWcqcv2C-dQ7gcDPI-5">
          <mxGeometry relative="1" as="geometry" />
        </mxCell>
        <mxCell id="2HecWcqcv2C-dQ7gcDPI-64" style="edgeStyle=orthogonalEdgeStyle;rounded=0;sketch=1;orthogonalLoop=1;jettySize=auto;html=1;exitX=0.5;exitY=1;exitDx=0;exitDy=0;entryX=0;entryY=0;entryDx=0;entryDy=0;shadow=1;fontSize=16;fontColor=default;" edge="1" parent="2HecWcqcv2C-dQ7gcDPI-53" source="2HecWcqcv2C-dQ7gcDPI-32" target="2HecWcqcv2C-dQ7gcDPI-23">
          <mxGeometry relative="1" as="geometry" />
        </mxCell>
        <mxCell id="2HecWcqcv2C-dQ7gcDPI-65" style="edgeStyle=orthogonalEdgeStyle;rounded=0;sketch=1;orthogonalLoop=1;jettySize=auto;html=1;exitX=1;exitY=0.5;exitDx=0;exitDy=0;entryX=0.5;entryY=0;entryDx=0;entryDy=0;shadow=1;fontSize=16;fontColor=default;" edge="1" parent="2HecWcqcv2C-dQ7gcDPI-53" source="2HecWcqcv2C-dQ7gcDPI-19" target="2HecWcqcv2C-dQ7gcDPI-23">
          <mxGeometry relative="1" as="geometry" />
        </mxCell>
        <mxCell id="2HecWcqcv2C-dQ7gcDPI-66" style="edgeStyle=orthogonalEdgeStyle;rounded=0;sketch=1;orthogonalLoop=1;jettySize=auto;html=1;exitX=0;exitY=0.5;exitDx=0;exitDy=0;entryX=0.73;entryY=0.03;entryDx=0;entryDy=0;entryPerimeter=0;shadow=1;fontSize=16;fontColor=default;" edge="1" parent="2HecWcqcv2C-dQ7gcDPI-53" source="2HecWcqcv2C-dQ7gcDPI-7" target="2HecWcqcv2C-dQ7gcDPI-23">
          <mxGeometry relative="1" as="geometry" />
        </mxCell>
        <mxCell id="2HecWcqcv2C-dQ7gcDPI-67" style="edgeStyle=orthogonalEdgeStyle;rounded=0;sketch=1;orthogonalLoop=1;jettySize=auto;html=1;exitX=1;exitY=0.5;exitDx=0;exitDy=0;entryX=0;entryY=0.5;entryDx=0;entryDy=0;shadow=1;fontSize=16;fontColor=default;" edge="1" parent="2HecWcqcv2C-dQ7gcDPI-53" source="2HecWcqcv2C-dQ7gcDPI-51" target="2HecWcqcv2C-dQ7gcDPI-34">
          <mxGeometry relative="1" as="geometry" />
        </mxCell>
        <mxCell id="2HecWcqcv2C-dQ7gcDPI-71" style="edgeStyle=orthogonalEdgeStyle;rounded=0;sketch=1;orthogonalLoop=1;jettySize=auto;html=1;exitX=0;exitY=0.5;exitDx=0;exitDy=0;entryX=1;entryY=0.5;entryDx=0;entryDy=0;shadow=1;fontSize=16;fontColor=default;" edge="1" parent="2HecWcqcv2C-dQ7gcDPI-53" source="2HecWcqcv2C-dQ7gcDPI-43" target="2HecWcqcv2C-dQ7gcDPI-37">
          <mxGeometry relative="1" as="geometry" />
        </mxCell>
        <mxCell id="2HecWcqcv2C-dQ7gcDPI-72" style="edgeStyle=orthogonalEdgeStyle;rounded=0;sketch=1;orthogonalLoop=1;jettySize=auto;html=1;exitX=0;exitY=0.5;exitDx=0;exitDy=0;entryX=1;entryY=1;entryDx=0;entryDy=0;shadow=1;fontSize=16;fontColor=default;" edge="1" parent="2HecWcqcv2C-dQ7gcDPI-53" source="2HecWcqcv2C-dQ7gcDPI-42" target="2HecWcqcv2C-dQ7gcDPI-37">
          <mxGeometry relative="1" as="geometry" />
        </mxCell>
        <mxCell id="2HecWcqcv2C-dQ7gcDPI-73" style="edgeStyle=orthogonalEdgeStyle;rounded=0;sketch=1;orthogonalLoop=1;jettySize=auto;html=1;exitX=0;exitY=0;exitDx=0;exitDy=0;shadow=1;fontSize=16;fontColor=default;" edge="1" parent="2HecWcqcv2C-dQ7gcDPI-53" source="2HecWcqcv2C-dQ7gcDPI-41" target="2HecWcqcv2C-dQ7gcDPI-37">
          <mxGeometry relative="1" as="geometry" />
        </mxCell>
        <mxCell id="2HecWcqcv2C-dQ7gcDPI-74" style="edgeStyle=orthogonalEdgeStyle;rounded=0;sketch=1;orthogonalLoop=1;jettySize=auto;html=1;exitX=0.5;exitY=0;exitDx=0;exitDy=0;entryX=0;entryY=1;entryDx=0;entryDy=0;shadow=1;fontSize=16;fontColor=default;" edge="1" parent="2HecWcqcv2C-dQ7gcDPI-53" source="2HecWcqcv2C-dQ7gcDPI-40" target="2HecWcqcv2C-dQ7gcDPI-37">
          <mxGeometry relative="1" as="geometry" />
        </mxCell>
        <mxCell id="2HecWcqcv2C-dQ7gcDPI-75" style="edgeStyle=orthogonalEdgeStyle;rounded=0;sketch=1;orthogonalLoop=1;jettySize=auto;html=1;exitX=1;exitY=0.5;exitDx=0;exitDy=0;entryX=0.009;entryY=0.339;entryDx=0;entryDy=0;entryPerimeter=0;shadow=1;fontSize=16;fontColor=default;" edge="1" parent="2HecWcqcv2C-dQ7gcDPI-53" source="2HecWcqcv2C-dQ7gcDPI-13" target="2HecWcqcv2C-dQ7gcDPI-23">
          <mxGeometry relative="1" as="geometry" />
        </mxCell>
        <mxCell id="2HecWcqcv2C-dQ7gcDPI-76" style="edgeStyle=orthogonalEdgeStyle;rounded=0;sketch=1;orthogonalLoop=1;jettySize=auto;html=1;exitX=0;exitY=0;exitDx=0;exitDy=30;exitPerimeter=0;entryX=0.765;entryY=0.118;entryDx=0;entryDy=0;entryPerimeter=0;shadow=1;fontSize=16;fontColor=default;" edge="1" parent="2HecWcqcv2C-dQ7gcDPI-53" source="2HecWcqcv2C-dQ7gcDPI-5" target="2HecWcqcv2C-dQ7gcDPI-34">
          <mxGeometry relative="1" as="geometry" />
        </mxCell>
      </root>
    </mxGraphModel>
  </diagram>
</mxfile>
